<?xml version="1.0" encoding="UTF-8" standalone="no"?>
<!DOCTYPE svg PUBLIC "-//W3C//DTD SVG 1.1//EN"
 "http://www.w3.org/Graphics/SVG/1.1/DTD/svg11.dtd">
<!-- Generated by graphviz version 2.47.0 (20210316.0004)
 -->
<!-- Title: dependencies Pages: 1 -->
<svg width="3420pt" height="284pt"
 viewBox="0.00 0.00 3420.00 284.00" xmlns="http://www.w3.org/2000/svg" xmlns:xlink="http://www.w3.org/1999/xlink">
<g id="graph0" class="graph" transform="scale(1 1) rotate(0) translate(4 280)">
<title>dependencies</title>
<polygon fill="white" stroke="transparent" points="-4,4 -4,-280 3416,-280 3416,4 -4,4"/>
<text text-anchor="start" x="1685.01" y="-42.4" font-family="Times-12" font-weight="bold" font-size="14.00">Legend</text>
<polygon fill="#ffffb3" stroke="transparent" points="1472,-10 1472,-30 1492,-30 1492,-10 1472,-10"/>
<text text-anchor="start" x="1495.63" y="-15.4" font-family="Times-12" font-size="14.00"> &#160;Declarations</text>
<polygon fill="#8dd3c7" stroke="transparent" points="1585,-10 1585,-30 1605,-30 1605,-10 1585,-10"/>
<text text-anchor="start" x="1608.73" y="-15.4" font-family="Times-12" font-size="14.00"> &#160;Module</text>
<polygon fill="#80b1d3" stroke="transparent" points="1671,-10 1671,-30 1691,-30 1691,-10 1671,-10"/>
<text text-anchor="start" x="1694.78" y="-15.4" font-family="Times-12" font-size="14.00"> &#160;Bootstrap</text>
<polygon fill="#fdb462" stroke="transparent" points="1768,-10 1768,-30 1788,-30 1788,-10 1768,-10"/>
<text text-anchor="start" x="1791.67" y="-15.4" font-family="Times-12" font-size="14.00"> &#160;Providers</text>
<polygon fill="#fb8072" stroke="transparent" points="1864,-10 1864,-30 1884,-30 1884,-10 1864,-10"/>
<text text-anchor="start" x="1887.73" y="-15.4" font-family="Times-12" font-size="14.00"> &#160;Exports</text>
<g id="clust1" class="cluster">
<title>cluster_AppModule</title>
<polygon fill="none" stroke="black" stroke-dasharray="1,5" points="8,-70 8,-268 3404,-268 3404,-70 8,-70"/>
</g>
<g id="clust2" class="cluster">
<title>cluster_AppModule_declarations</title>
<polygon fill="none" stroke="black" points="517,-78 517,-130 3396,-130 3396,-78 517,-78"/>
</g>
<g id="clust20" class="cluster">
<title>cluster_AppModule_imports</title>
<polygon fill="none" stroke="black" points="240,-78 240,-130 509,-130 509,-78 240,-78"/>
</g>
<g id="clust22" class="cluster">
<title>cluster_AppModule_bootstrap</title>
<polygon fill="none" stroke="black" points="1606,-208 1606,-260 1730,-260 1730,-208 1606,-208"/>
</g>
<g id="clust23" class="cluster">
<title>cluster_AppModule_providers</title>
<polygon fill="none" stroke="black" points="16,-78 16,-130 232,-130 232,-78 16,-78"/>
</g>
<!-- AppComponent -->
<g id="node1" class="node">
<title>AppComponent</title>
<polygon fill="#ffffb3" stroke="black" points="3387.94,-122 3282.06,-122 3282.06,-86 3387.94,-86 3387.94,-122"/>
<text text-anchor="middle" x="3335" y="-99.8" font-family="Times,serif" font-size="14.00">AppComponent</text>
</g>
<!-- AppModule -->
<g id="node18" class="node">
<title>AppModule</title>
<polygon fill="#8dd3c7" stroke="black" points="1709.66,-187 1706.66,-191 1685.66,-191 1682.66,-187 1626.34,-187 1626.34,-151 1709.66,-151 1709.66,-187"/>
<text text-anchor="middle" x="1668" y="-164.8" font-family="Times,serif" font-size="14.00">AppModule</text>
</g>
<!-- AppComponent&#45;&gt;AppModule -->
<g id="edge1" class="edge">
<title>AppComponent&#45;&gt;AppModule</title>
<path fill="none" stroke="black" d="M3335,-122.15C3335,-145.76 3335,-184 3335,-184 3335,-184 1720.04,-184 1720.04,-184"/>
<polygon fill="black" stroke="black" points="1720.04,-180.5 1710.04,-184 1720.04,-187.5 1720.04,-180.5"/>
</g>
<!-- AuthContainerComponent -->
<g id="node2" class="node">
<title>AuthContainerComponent</title>
<polygon fill="#ffffb3" stroke="black" points="3264.04,-122 3099.96,-122 3099.96,-86 3264.04,-86 3264.04,-122"/>
<text text-anchor="middle" x="3182" y="-99.8" font-family="Times,serif" font-size="14.00">AuthContainerComponent</text>
</g>
<!-- AuthContainerComponent&#45;&gt;AppModule -->
<g id="edge2" class="edge">
<title>AuthContainerComponent&#45;&gt;AppModule</title>
<path fill="none" stroke="black" d="M3182,-122.01C3182,-144.49 3182,-180 3182,-180 3182,-180 1719.68,-180 1719.68,-180"/>
<polygon fill="black" stroke="black" points="1719.68,-176.5 1709.68,-180 1719.68,-183.5 1719.68,-176.5"/>
</g>
<!-- AuthFormComponent -->
<g id="node3" class="node">
<title>AuthFormComponent</title>
<polygon fill="#ffffb3" stroke="black" points="3081.66,-122 2942.34,-122 2942.34,-86 3081.66,-86 3081.66,-122"/>
<text text-anchor="middle" x="3012" y="-99.8" font-family="Times,serif" font-size="14.00">AuthFormComponent</text>
</g>
<!-- AuthFormComponent&#45;&gt;AppModule -->
<g id="edge3" class="edge">
<title>AuthFormComponent&#45;&gt;AppModule</title>
<path fill="none" stroke="black" d="M3012,-122.04C3012,-143.66 3012,-177 3012,-177 3012,-177 1719.7,-177 1719.7,-177"/>
<polygon fill="black" stroke="black" points="1719.7,-173.5 1709.7,-177 1719.7,-180.5 1719.7,-173.5"/>
</g>
<!-- CreditCardComponent -->
<g id="node4" class="node">
<title>CreditCardComponent</title>
<polygon fill="#ffffb3" stroke="black" points="2923.54,-122 2780.46,-122 2780.46,-86 2923.54,-86 2923.54,-122"/>
<text text-anchor="middle" x="2852" y="-99.8" font-family="Times,serif" font-size="14.00">CreditCardComponent</text>
</g>
<!-- CreditCardComponent&#45;&gt;AppModule -->
<g id="edge4" class="edge">
<title>CreditCardComponent&#45;&gt;AppModule</title>
<path fill="none" stroke="black" d="M2852,-122.13C2852,-142.57 2852,-173 2852,-173 2852,-173 1719.79,-173 1719.79,-173"/>
<polygon fill="black" stroke="black" points="1719.79,-169.5 1709.79,-173 1719.79,-176.5 1719.79,-169.5"/>
</g>
<!-- CustomSnackbarComponent -->
<g id="node5" class="node">
<title>CustomSnackbarComponent</title>
<polygon fill="#ffffb3" stroke="black" points="2762.48,-122 2585.52,-122 2585.52,-86 2762.48,-86 2762.48,-122"/>
<text text-anchor="middle" x="2674" y="-99.8" font-family="Times,serif" font-size="14.00">CustomSnackbarComponent</text>
</g>
<!-- CustomSnackbarComponent&#45;&gt;AppModule -->
<g id="edge5" class="edge">
<title>CustomSnackbarComponent&#45;&gt;AppModule</title>
<path fill="none" stroke="black" d="M2674,-122.11C2674,-141.34 2674,-169 2674,-169 2674,-169 1719.95,-169 1719.95,-169"/>
<polygon fill="black" stroke="black" points="1719.95,-165.5 1709.95,-169 1719.95,-172.5 1719.95,-165.5"/>
</g>
<!-- DashboardComponent -->
<g id="node6" class="node">
<title>DashboardComponent</title>
<polygon fill="#ffffb3" stroke="black" points="2567.97,-122 2426.03,-122 2426.03,-86 2567.97,-86 2567.97,-122"/>
<text text-anchor="middle" x="2497" y="-99.8" font-family="Times,serif" font-size="14.00">DashboardComponent</text>
</g>
<!-- DashboardComponent&#45;&gt;AppModule -->
<g id="edge6" class="edge">
<title>DashboardComponent&#45;&gt;AppModule</title>
<path fill="none" stroke="black" d="M2497,-122.27C2497,-140.56 2497,-166 2497,-166 2497,-166 1719.68,-166 1719.68,-166"/>
<polygon fill="black" stroke="black" points="1719.68,-162.5 1709.68,-166 1719.68,-169.5 1719.68,-162.5"/>
</g>
<!-- DashboardItemsComponent -->
<g id="node7" class="node">
<title>DashboardItemsComponent</title>
<polygon fill="#ffffb3" stroke="black" points="2407.57,-122 2234.43,-122 2234.43,-86 2407.57,-86 2407.57,-122"/>
<text text-anchor="middle" x="2321" y="-99.8" font-family="Times,serif" font-size="14.00">DashboardItemsComponent</text>
</g>
<!-- DashboardItemsComponent&#45;&gt;AppModule -->
<g id="edge7" class="edge">
<title>DashboardItemsComponent&#45;&gt;AppModule</title>
<path fill="none" stroke="black" d="M2321,-122.03C2321,-139.06 2321,-162 2321,-162 2321,-162 1719.84,-162 1719.84,-162"/>
<polygon fill="black" stroke="black" points="1719.84,-158.5 1709.84,-162 1719.84,-165.5 1719.84,-158.5"/>
</g>
<!-- FundsHistoryComponent -->
<g id="node8" class="node">
<title>FundsHistoryComponent</title>
<polygon fill="#ffffb3" stroke="black" points="2216.55,-122 2059.45,-122 2059.45,-86 2216.55,-86 2216.55,-122"/>
<text text-anchor="middle" x="2138" y="-99.8" font-family="Times,serif" font-size="14.00">FundsHistoryComponent</text>
</g>
<!-- FundsHistoryComponent&#45;&gt;AppModule -->
<g id="edge8" class="edge">
<title>FundsHistoryComponent&#45;&gt;AppModule</title>
<path fill="none" stroke="black" d="M2138,-122.01C2138,-138.05 2138,-159 2138,-159 2138,-159 1719.71,-159 1719.71,-159"/>
<polygon fill="black" stroke="black" points="1719.71,-155.5 1709.71,-159 1719.71,-162.5 1719.71,-155.5"/>
</g>
<!-- FundsHistoryTableComponent -->
<g id="node9" class="node">
<title>FundsHistoryTableComponent</title>
<polygon fill="#ffffb3" stroke="black" points="2041.93,-122 1852.07,-122 1852.07,-86 2041.93,-86 2041.93,-122"/>
<text text-anchor="middle" x="1947" y="-99.8" font-family="Times,serif" font-size="14.00">FundsHistoryTableComponent</text>
</g>
<!-- FundsHistoryTableComponent&#45;&gt;AppModule -->
<g id="edge9" class="edge">
<title>FundsHistoryTableComponent&#45;&gt;AppModule</title>
<path fill="none" stroke="black" d="M1947,-122.12C1947,-136.78 1947,-155 1947,-155 1947,-155 1719.77,-155 1719.77,-155"/>
<polygon fill="black" stroke="black" points="1719.77,-151.5 1709.77,-155 1719.77,-158.5 1719.77,-151.5"/>
</g>
<!-- LastMovementsComponent -->
<g id="node10" class="node">
<title>LastMovementsComponent</title>
<polygon fill="#ffffb3" stroke="black" points="1834.54,-122 1663.46,-122 1663.46,-86 1834.54,-86 1834.54,-122"/>
<text text-anchor="middle" x="1749" y="-99.8" font-family="Times,serif" font-size="14.00">LastMovementsComponent</text>
</g>
<!-- LastMovementsComponent&#45;&gt;AppModule -->
<g id="edge10" class="edge">
<title>LastMovementsComponent&#45;&gt;AppModule</title>
<path fill="none" stroke="black" d="M1686.53,-122.11C1686.53,-122.11 1686.53,-140.99 1686.53,-140.99"/>
<polygon fill="black" stroke="black" points="1683.03,-140.99 1686.53,-150.99 1690.03,-140.99 1683.03,-140.99"/>
</g>
<!-- LoginComponent -->
<g id="node11" class="node">
<title>LoginComponent</title>
<polygon fill="#ffffb3" stroke="black" points="1645.28,-122 1530.72,-122 1530.72,-86 1645.28,-86 1645.28,-122"/>
<text text-anchor="middle" x="1588" y="-99.8" font-family="Times,serif" font-size="14.00">LoginComponent</text>
</g>
<!-- LoginComponent&#45;&gt;AppModule -->
<g id="edge11" class="edge">
<title>LoginComponent&#45;&gt;AppModule</title>
<path fill="none" stroke="black" d="M1635.78,-122.11C1635.78,-122.11 1635.78,-140.99 1635.78,-140.99"/>
<polygon fill="black" stroke="black" points="1632.28,-140.99 1635.78,-150.99 1639.28,-140.99 1632.28,-140.99"/>
</g>
<!-- LogoComponent -->
<g id="node12" class="node">
<title>LogoComponent</title>
<polygon fill="#ffffb3" stroke="black" points="1512.39,-122 1401.61,-122 1401.61,-86 1512.39,-86 1512.39,-122"/>
<text text-anchor="middle" x="1457" y="-99.8" font-family="Times,serif" font-size="14.00">LogoComponent</text>
</g>
<!-- LogoComponent&#45;&gt;AppModule -->
<g id="edge12" class="edge">
<title>LogoComponent&#45;&gt;AppModule</title>
<path fill="none" stroke="black" d="M1457,-122.12C1457,-136.78 1457,-155 1457,-155 1457,-155 1616.31,-155 1616.31,-155"/>
<polygon fill="black" stroke="black" points="1616.31,-158.5 1626.31,-155 1616.31,-151.5 1616.31,-158.5"/>
</g>
<!-- ManageFundsComponent -->
<g id="node13" class="node">
<title>ManageFundsComponent</title>
<polygon fill="#ffffb3" stroke="black" points="1383.15,-122 1222.85,-122 1222.85,-86 1383.15,-86 1383.15,-122"/>
<text text-anchor="middle" x="1303" y="-99.8" font-family="Times,serif" font-size="14.00">ManageFundsComponent</text>
</g>
<!-- ManageFundsComponent&#45;&gt;AppModule -->
<g id="edge13" class="edge">
<title>ManageFundsComponent&#45;&gt;AppModule</title>
<path fill="none" stroke="black" d="M1303,-122.01C1303,-138.05 1303,-159 1303,-159 1303,-159 1616.13,-159 1616.13,-159"/>
<polygon fill="black" stroke="black" points="1616.13,-162.5 1626.13,-159 1616.13,-155.5 1616.13,-162.5"/>
</g>
<!-- ManageFundsItemComponent -->
<g id="node14" class="node">
<title>ManageFundsItemComponent</title>
<polygon fill="#ffffb3" stroke="black" points="1205.3,-122 1018.7,-122 1018.7,-86 1205.3,-86 1205.3,-122"/>
<text text-anchor="middle" x="1112" y="-99.8" font-family="Times,serif" font-size="14.00">ManageFundsItemComponent</text>
</g>
<!-- ManageFundsItemComponent&#45;&gt;AppModule -->
<g id="edge14" class="edge">
<title>ManageFundsItemComponent&#45;&gt;AppModule</title>
<path fill="none" stroke="black" d="M1112,-122.03C1112,-139.06 1112,-162 1112,-162 1112,-162 1616.21,-162 1616.21,-162"/>
<polygon fill="black" stroke="black" points="1616.21,-165.5 1626.21,-162 1616.21,-158.5 1616.21,-165.5"/>
</g>
<!-- MaterialSidenavComponent -->
<g id="node15" class="node">
<title>MaterialSidenavComponent</title>
<polygon fill="#ffffb3" stroke="black" points="1000.86,-122 827.14,-122 827.14,-86 1000.86,-86 1000.86,-122"/>
<text text-anchor="middle" x="914" y="-99.8" font-family="Times,serif" font-size="14.00">MaterialSidenavComponent</text>
</g>
<!-- MaterialSidenavComponent&#45;&gt;AppModule -->
<g id="edge15" class="edge">
<title>MaterialSidenavComponent&#45;&gt;AppModule</title>
<path fill="none" stroke="black" d="M914,-122.27C914,-140.56 914,-166 914,-166 914,-166 1616.12,-166 1616.12,-166"/>
<polygon fill="black" stroke="black" points="1616.12,-169.5 1626.12,-166 1616.12,-162.5 1616.12,-169.5"/>
</g>
<!-- NotFoundComponent -->
<g id="node16" class="node">
<title>NotFoundComponent</title>
<polygon fill="#ffffb3" stroke="black" points="809.11,-122 670.89,-122 670.89,-86 809.11,-86 809.11,-122"/>
<text text-anchor="middle" x="740" y="-99.8" font-family="Times,serif" font-size="14.00">NotFoundComponent</text>
</g>
<!-- NotFoundComponent&#45;&gt;AppModule -->
<g id="edge16" class="edge">
<title>NotFoundComponent&#45;&gt;AppModule</title>
<path fill="none" stroke="black" d="M740,-122.11C740,-141.34 740,-169 740,-169 740,-169 1616.32,-169 1616.32,-169"/>
<polygon fill="black" stroke="black" points="1616.32,-172.5 1626.32,-169 1616.32,-165.5 1616.32,-172.5"/>
</g>
<!-- RegisterComponent -->
<g id="node17" class="node">
<title>RegisterComponent</title>
<polygon fill="#ffffb3" stroke="black" points="652.98,-122 525.02,-122 525.02,-86 652.98,-86 652.98,-122"/>
<text text-anchor="middle" x="589" y="-99.8" font-family="Times,serif" font-size="14.00">RegisterComponent</text>
</g>
<!-- RegisterComponent&#45;&gt;AppModule -->
<g id="edge17" class="edge">
<title>RegisterComponent&#45;&gt;AppModule</title>
<path fill="none" stroke="black" d="M589,-122.13C589,-142.57 589,-173 589,-173 589,-173 1616.03,-173 1616.03,-173"/>
<polygon fill="black" stroke="black" points="1616.03,-176.5 1626.03,-173 1616.03,-169.5 1616.03,-176.5"/>
</g>
<!-- AppComponent  -->
<g id="node21" class="node">
<title>AppComponent </title>
<polygon fill="#80b1d3" stroke="black" points="1722.44,-252 1613.56,-252 1613.56,-216 1722.44,-216 1722.44,-252"/>
<text text-anchor="middle" x="1668" y="-229.8" font-family="Times,serif" font-size="14.00">AppComponent </text>
</g>
<!-- AppModule&#45;&gt;AppComponent  -->
<g id="edge20" class="edge">
<title>AppModule&#45;&gt;AppComponent </title>
<path fill="none" stroke="black" stroke-dasharray="1,5" d="M1668,-187.11C1668,-187.11 1668,-205.99 1668,-205.99"/>
<polygon fill="black" stroke="black" points="1664.5,-205.99 1668,-215.99 1671.5,-205.99 1664.5,-205.99"/>
</g>
<!-- AppRoutingModule -->
<g id="node19" class="node">
<title>AppRoutingModule</title>
<polygon fill="#8dd3c7" stroke="black" points="501.27,-122 498.27,-126 477.27,-126 474.27,-122 372.73,-122 372.73,-86 501.27,-86 501.27,-122"/>
<text text-anchor="middle" x="437" y="-99.8" font-family="Times,serif" font-size="14.00">AppRoutingModule</text>
</g>
<!-- AppRoutingModule&#45;&gt;AppModule -->
<g id="edge18" class="edge">
<title>AppRoutingModule&#45;&gt;AppModule</title>
<path fill="none" stroke="black" d="M437,-122.04C437,-143.66 437,-177 437,-177 437,-177 1616.34,-177 1616.34,-177"/>
<polygon fill="black" stroke="black" points="1616.34,-180.5 1626.34,-177 1616.34,-173.5 1616.34,-180.5"/>
</g>
<!-- MaterialModule -->
<g id="node20" class="node">
<title>MaterialModule</title>
<polygon fill="#8dd3c7" stroke="black" points="354.47,-122 351.47,-126 330.47,-126 327.47,-122 247.53,-122 247.53,-86 354.47,-86 354.47,-122"/>
<text text-anchor="middle" x="301" y="-99.8" font-family="Times,serif" font-size="14.00">MaterialModule</text>
</g>
<!-- MaterialModule&#45;&gt;AppModule -->
<g id="edge19" class="edge">
<title>MaterialModule&#45;&gt;AppModule</title>
<path fill="none" stroke="black" d="M301,-122.01C301,-144.49 301,-180 301,-180 301,-180 1616.34,-180 1616.34,-180"/>
<polygon fill="black" stroke="black" points="1616.34,-183.5 1626.34,-180 1616.34,-176.5 1616.34,-183.5"/>
</g>
<!-- HttpInterceptorService -->
<g id="node22" class="node">
<title>HttpInterceptorService</title>
<ellipse fill="#fdb462" stroke="black" cx="124" cy="-104" rx="99.53" ry="18"/>
<text text-anchor="middle" x="124" y="-99.8" font-family="Times,serif" font-size="14.00">HttpInterceptorService</text>
</g>
<!-- HttpInterceptorService&#45;&gt;AppModule -->
<g id="edge21" class="edge">
<title>HttpInterceptorService&#45;&gt;AppModule</title>
<path fill="none" stroke="black" d="M124,-122.15C124,-145.76 124,-184 124,-184 124,-184 1616.3,-184 1616.3,-184"/>
<polygon fill="black" stroke="black" points="1616.3,-187.5 1626.3,-184 1616.3,-180.5 1616.3,-187.5"/>
</g>
</g>
</svg>
